<svg width="0" height="0" class="hidden">
  <symbol fill="none" xmlns="http://www.w3.org/2000/svg" viewBox="0 0 24 24" id="Clock">
    <path fill-rule="evenodd" clip-rule="evenodd" d="M12 2.75C6.89137 2.75 2.75 6.89137 2.75 12C2.75 17.1086 6.89137 21.25 12 21.25C17.1086 21.25 21.25 17.1086 21.25 12C21.25 6.89137 17.1086 2.75 12 2.75ZM1.25 12C1.25 6.06294 6.06294 1.25 12 1.25C17.9371 1.25 22.75 6.06294 22.75 12C22.75 17.9371 17.9371 22.75 12 22.75C6.06294 22.75 1.25 17.9371 1.25 12ZM12 7.25C12.4142 7.25 12.75 7.58579 12.75 8V11.6893L15.0303 13.9697C15.3232 14.2626 15.3232 14.7374 15.0303 15.0303C14.7374 15.3232 14.2626 15.3232 13.9697 15.0303L11.4697 12.5303C11.329 12.3897 11.25 12.1989 11.25 12V8C11.25 7.58579 11.5858 7.25 12 7.25Z"></path>
  </symbol>
  <symbol fill="#000000" version="1.1" id="Growth" xmlns="http://www.w3.org/2000/svg" xmlns:xlink="http://www.w3.org/1999/xlink" xml:space="preserve" viewBox="0 0 490 490">
    <g>
      <g>
        <g>
          <path d="M440,450V100c0-5.522-4.477-10-10-10h-70c-5.523,0-10,4.478-10,10v350h-10V190c0-5.522-4.477-10-10-10h-70
				c-5.523,0-10,4.478-10,10v260h-10V250c0-5.522-4.477-10-10-10h-70c-5.523,0-10,4.478-10,10v200h-10V320c0-5.522-4.477-10-10-10
				H60c-5.523,0-10,4.478-10,10v130H0v20h490v-20H440z M120,450H70v-75h50V450z M120,355H70v-25h50V355z M220,450h-50V305h50V450z
				 M220,285h-50v-25h50V285z M320,450h-50V245h50V450z M320,225h-50v-25h50V225z M420,450h-50V155h50V450z M420,135h-50v-25h50V135
				z"></path>
          <path d="M57.072,282.072L285,54.143V90h20V30c0-5.522-4.477-10-10-10h-65v20h40.857L42.929,267.929L57.072,282.072z"></path>
        </g>
      </g>
    </g>
  </symbol>
</svg>